<svg xmlns="http://www.w3.org/2000/svg" width="32" height="32" viewBox="0 0 32 32"><path fill="#cba552" fill-rule="evenodd" d="M27.50 16.00 L30.96 17.10 L30.60 19.43 L26.97 19.44 L25.96 21.75 L28.41 24.43 L26.93 26.27 L23.78 24.47 L21.75 25.96 L22.53 29.50 L20.34 30.36 L18.51 27.22 L16.00 27.50 L14.90 30.96 L12.57 30.60 L12.56 26.97 L10.25 25.96 L7.57 28.41 L5.73 26.93 L7.53 23.78 L6.04 21.75 L2.50 22.53 L1.64 20.34 L4.78 18.51 L4.50 16.00 L1.04 14.90 L1.40 12.57 L5.03 12.56 L6.04 10.25 L3.59 7.57 L5.07 5.73 L8.22 7.53 L10.25 6.04 L9.47 2.50 L11.66 1.64 L13.49 4.78 L16.00 4.50 L17.10 1.04 L19.43 1.40 L19.44 5.03 L21.75 6.04 L24.43 3.59 L26.27 5.07 L24.47 8.22 L25.96 10.25 L29.50 9.47 L30.36 11.66 L27.22 13.49Z M10.80 16a5.2 5.2 0 1 0 10.4 0a5.2 5.2 0 1 0 -10.4 0Z" /><circle cx="16" cy="16" r="8.3" fill="none" stroke="#8a6a2c" stroke-width="0.8"/></svg>
